<?xml version="1.0" standalone="no"?>
<svg xmlns="http://www.w3.org/2000/svg" viewBox="0 0 188.113 36" width="188.113" height="36"><g fill="#ff5576" color="#ff5576" transform="translate(0 6.239999999999998) scale(0.5600001)"><svg width="50.0" height="42.0" x="0.0" y="0.0" viewBox="0 0 50 42"><path fill="currentColor" fill-rule="evenodd" d="M39.414 17.264v20.7H10.35V17.153c0-.048-.011-.093-.015-.14L24.882 4.829 39.439 17.02c-.01.081-.025.16-.025.244m9.711 3.21L26.03 1.132a1.787 1.787 0 0 0-2.294 0L.639 20.475a1.786 1.786 0 0 0 2.293 2.738l3.845-3.221V39.75c0 .986.8 1.785 1.786 1.785H41.2c.986 0 1.786-.799 1.786-1.785V19.992l3.845 3.22a1.784 1.784 0 0 0 2.516-.223 1.785 1.785 0 0 0-.22-2.514m-25.81 2.38a1.785 1.785 0 1 0 3.13 0 1.371 1.371 0 0 1 2.573.656c0 1.665-2.415 3.67-4.14 4.774-1.723-1.098-4.134-3.098-4.134-4.773a1.371 1.371 0 0 1 2.571-.657m-6.142.657c0 4.623 6.164 8.046 6.867 8.42a1.784 1.784 0 0 0 1.681 0c.703-.374 6.868-3.797 6.868-8.42a4.947 4.947 0 0 0-4.942-4.94 4.932 4.932 0 0 0-2.766.848 4.941 4.941 0 0 0-2.767-.848 4.947 4.947 0 0 0-4.941 4.94"></path></svg></g><path fill="#0b0cac" fill-rule="nonzero" d="M7.78 9.82Q8.62 11.23 9.47 12.32Q10.32 13.42 11.71 15.00L11.71 15.00Q11.88 15.17 11.88 15.38L11.88 15.38Q11.88 15.72 11.51 15.96Q11.14 16.20 10.61 16.20L10.61 16.20Q9.86 16.20 9 15.58L9 15.58Q8.23 15.02 7.63 14.11Q7.03 13.20 6.24 11.74L6.24 11.74Q5.62 10.61 5.50 10.42L5.50 10.42Q4.56 10.80 2.57 10.90L2.57 10.90Q2.57 11.71 2.71 13.10L2.71 13.10Q2.86 14.54 2.86 15.19L2.86 15.19Q2.86 15.62 2.44 15.91Q2.02 16.20 1.49 16.20L1.49 16.20Q0.86 16.20 0.53 15.70L0.53 15.70Q0.19 15.02 0.10 14.09Q0 13.15 0 11.86L0 11.86Q0 10.49 0.17 8.76L0.17 8.76Q0.31 6.84 0.31 5.93L0.31 5.93Q0.31 5.18 0.17 3.94L0.17 3.94Q0.14 3.72 0.10 3.19Q0.05 2.66 0.05 2.23L0.05 2.23Q0.05 1.90 0.30 1.64Q0.55 1.39 0.84 1.30L0.84 1.30Q2.78 0.98 4.63 0.98L4.63 0.98Q7.78 0.98 9.84 2.16Q11.90 3.34 11.90 5.74L11.90 5.74Q11.90 6.48 11.58 7.16Q11.26 7.85 10.70 8.30L10.70 8.30Q9.24 9.43 7.78 9.82L7.78 9.82ZM9.38 5.66Q9.38 4.51 8.16 3.78Q6.94 3.05 4.68 3.05L4.68 3.05Q3.67 3.05 2.69 3.29L2.69 3.29L2.71 4.51Q2.71 5.57 2.64 6.58L2.64 6.58Q2.57 7.58 2.57 8.74L2.57 8.74Q2.98 8.64 3.43 8.60Q3.89 8.57 4.03 8.54L4.03 8.54Q5.09 8.45 5.66 8.30L5.66 8.30Q6.74 7.97 7.45 7.69Q8.16 7.42 8.77 6.90Q9.38 6.38 9.38 5.66L9.38 5.66ZM15.26 0.77Q16.10 0.84 16.73 1.21Q17.35 1.58 17.35 2.33L17.35 2.33Q17.35 2.88 16.84 3.20Q16.32 3.53 15.60 3.53L15.60 3.53Q14.90 3.53 14.64 3.17Q14.38 2.81 14.38 2.42L14.38 2.42Q14.38 1.70 14.53 1.22Q14.69 0.74 15.26 0.77L15.26 0.77ZM17.18 7.08L17.18 11.40L17.18 12.10Q17.18 13.03 17.24 13.86Q17.30 14.69 17.40 15.53L17.40 15.53Q17.38 15.77 17.04 16.02Q16.70 16.27 16.44 16.27L16.44 16.27Q15.98 16.27 15.52 16.09Q15.05 15.91 14.95 15.65L14.95 15.65Q14.81 14.88 14.81 14.28L14.81 14.28Q14.81 12.31 14.69 9.86L14.69 9.86Q14.59 7.70 14.59 6.84L14.59 6.84Q14.59 6.41 15.02 6.10Q15.46 5.78 15.94 5.78L15.94 5.78Q16.63 5.78 16.91 6.10Q17.18 6.41 17.18 7.08L17.18 7.08ZM28.70 8.16Q28.70 9.22 27.62 9.22L27.62 9.22Q27.26 9.22 27.02 9.05Q26.78 8.88 26.50 8.54L26.50 8.54Q25.78 7.75 25.25 7.75L25.25 7.75Q24.55 7.75 23.89 8.16Q23.23 8.57 22.82 9.31Q22.42 10.06 22.42 10.97L22.42 10.97Q22.42 11.98 22.81 12.65Q23.21 13.32 24.05 13.80L24.05 13.80Q24.36 13.97 24.78 14.06Q25.20 14.16 25.51 14.16L25.51 14.16Q26.21 14.16 27.26 13.61L27.26 13.61Q27.65 13.42 27.91 13.32Q28.18 13.22 28.46 13.22L28.46 13.22Q28.73 13.22 29.06 13.46Q29.40 13.70 29.40 14.06L29.40 14.06Q29.40 14.78 28.73 15.28Q28.06 15.77 27.08 16.02Q26.11 16.27 25.22 16.27L25.22 16.27Q23.81 16.27 22.60 15.62Q21.38 14.98 20.66 13.84Q19.94 12.70 19.94 11.26L19.94 11.26Q19.94 9.72 20.64 8.45Q21.34 7.18 22.51 6.46Q23.69 5.74 25.08 5.74L25.08 5.74Q25.87 5.74 26.71 6.02Q27.55 6.31 28.13 6.86Q28.70 7.42 28.70 8.16L28.70 8.16ZM31.25 11.09Q31.25 10.18 31.58 9.25Q31.92 8.33 32.47 7.56L32.47 7.56Q33.02 6.79 34.22 6.30Q35.42 5.81 36.36 5.81L36.36 5.81Q37.32 5.81 38.32 6.07Q39.31 6.34 39.70 6.89L39.70 6.89Q40.58 8.14 40.58 9.34L40.58 9.34Q40.58 9.98 40.31 10.44Q40.03 10.90 39.53 11.42L39.53 11.42Q39.12 11.86 38.24 12.00Q37.37 12.14 36.50 12.14L36.50 12.14Q35.95 12.14 35.16 12.04Q34.37 11.93 33.62 11.76L33.62 11.76Q33.67 12.24 33.86 12.70Q34.06 13.15 34.32 13.39L34.32 13.39Q34.80 13.85 35.32 13.97Q35.83 14.09 36.65 14.09L36.65 14.09Q37.51 14.09 38.26 13.80L38.26 13.80Q38.86 13.58 39.24 13.58L39.24 13.58Q39.70 13.58 39.94 13.86Q40.18 14.14 40.18 14.57L40.18 14.57Q40.18 15.17 39.48 15.55Q38.78 15.94 37.88 16.12Q36.98 16.30 36.43 16.30L36.43 16.30Q35.30 16.30 34.25 15.89Q33.19 15.48 32.50 14.74L32.50 14.74Q31.92 14.06 31.58 13.12Q31.25 12.17 31.25 11.09L31.25 11.09ZM36.48 7.85Q35.95 7.85 35.42 8.05Q34.90 8.26 34.56 8.62L34.56 8.62Q34.13 9.07 33.97 9.35Q33.82 9.62 33.77 10.10L33.77 10.10Q34.37 10.30 36.26 10.30L36.26 10.30Q37.30 10.30 37.86 9.98Q38.42 9.67 38.42 9.17L38.42 9.17Q38.42 8.66 37.80 8.26Q37.18 7.85 36.48 7.85L36.48 7.85ZM44.04 7.97L42.89 7.87Q42.55 7.82 42.35 7.58Q42.14 7.34 42.14 7.01L42.14 7.01Q42.14 6.84 42.23 6.65Q42.31 6.46 42.48 6.31L42.48 6.31Q42.79 6.00 44.16 6.00L44.16 6.00Q44.35 5.06 44.35 4.10L44.35 4.10Q44.35 3.74 44.33 3.48Q44.30 3.22 44.30 3.07L44.30 3.07Q44.30 2.54 44.70 2.28Q45.10 2.02 45.60 2.02L45.60 2.02Q46.22 2.02 46.45 2.33Q46.68 2.64 46.68 3.48L46.68 3.48Q46.68 4.73 46.46 5.93L46.46 5.93Q46.85 5.93 47.52 5.88L47.52 5.88Q48.43 5.83 48.84 5.83L48.84 5.83Q49.25 5.83 49.55 6.04Q49.85 6.24 49.85 6.60L49.85 6.60Q49.85 7.54 49.01 7.70L49.01 7.70Q48.12 7.92 46.25 7.97L46.25 7.97Q46.18 8.90 46.18 10.01L46.18 10.01Q46.18 11.74 46.39 12.84L46.39 12.84Q46.54 13.61 46.88 13.96Q47.23 14.30 47.93 14.30L47.93 14.30Q48.34 14.30 48.77 14.09L48.77 14.09Q49.06 13.92 49.30 13.92L49.30 13.92Q49.63 13.92 49.79 14.14Q49.94 14.35 49.94 14.71L49.94 14.71Q49.94 15.38 49.22 15.83Q48.50 16.27 47.38 16.27L47.38 16.27Q46.68 16.27 45.97 15.94Q45.26 15.60 44.78 15.10L44.78 15.10Q44.71 15.02 44.52 14.54Q44.33 14.06 44.18 13.51L44.18 13.51Q43.94 12.38 43.94 10.34L43.94 10.34Q43.94 9.46 44.04 7.97L44.04 7.97ZM53.06 7.97L51.91 7.87Q51.58 7.82 51.37 7.58Q51.17 7.34 51.17 7.01L51.17 7.01Q51.17 6.84 51.25 6.65Q51.34 6.46 51.50 6.31L51.50 6.31Q51.82 6.00 53.18 6.00L53.18 6.00Q53.38 5.06 53.38 4.10L53.38 4.10Q53.38 3.74 53.35 3.48Q53.33 3.22 53.33 3.07L53.33 3.07Q53.33 2.54 53.72 2.28Q54.12 2.02 54.62 2.02L54.62 2.02Q55.25 2.02 55.48 2.33Q55.70 2.64 55.70 3.48L55.70 3.48Q55.70 4.73 55.49 5.93L55.49 5.93Q55.87 5.93 56.54 5.88L56.54 5.88Q57.46 5.83 57.86 5.83L57.86 5.83Q58.27 5.83 58.57 6.04Q58.87 6.24 58.87 6.60L58.87 6.60Q58.87 7.54 58.03 7.70L58.03 7.70Q57.14 7.92 55.27 7.97L55.27 7.97Q55.20 8.90 55.20 10.01L55.20 10.01Q55.20 11.74 55.42 12.84L55.42 12.84Q55.56 13.61 55.91 13.96Q56.26 14.30 56.95 14.30L56.95 14.30Q57.36 14.30 57.79 14.09L57.79 14.09Q58.08 13.92 58.32 13.92L58.32 13.92Q58.66 13.92 58.81 14.14Q58.97 14.35 58.97 14.71L58.97 14.71Q58.97 15.38 58.25 15.83Q57.53 16.27 56.40 16.27L56.40 16.27Q55.70 16.27 55.00 15.94Q54.29 15.60 53.81 15.10L53.81 15.10Q53.74 15.02 53.54 14.54Q53.35 14.06 53.21 13.51L53.21 13.51Q52.97 12.38 52.97 10.34L52.97 10.34Q52.97 9.46 53.06 7.97L53.06 7.97ZM60.74 11.09Q60.74 10.18 61.08 9.25Q61.42 8.33 61.97 7.56L61.97 7.56Q62.52 6.79 63.72 6.30Q64.92 5.81 65.86 5.81L65.86 5.81Q66.82 5.81 67.81 6.07Q68.81 6.34 69.19 6.89L69.19 6.89Q70.08 8.14 70.08 9.34L70.08 9.34Q70.08 9.98 69.80 10.44Q69.53 10.90 69.02 11.42L69.02 11.42Q68.62 11.86 67.74 12.00Q66.86 12.14 66 12.14L66 12.14Q65.45 12.14 64.66 12.04Q63.86 11.93 63.12 11.76L63.12 11.76Q63.17 12.24 63.36 12.70Q63.55 13.15 63.82 13.39L63.82 13.39Q64.30 13.85 64.81 13.97Q65.33 14.09 66.14 14.09L66.14 14.09Q67.01 14.09 67.75 13.80L67.75 13.80Q68.35 13.58 68.74 13.58L68.74 13.58Q69.19 13.58 69.43 13.86Q69.67 14.14 69.67 14.57L69.67 14.57Q69.67 15.17 68.98 15.55Q68.28 15.94 67.38 16.12Q66.48 16.30 65.93 16.30L65.93 16.30Q64.80 16.30 63.74 15.89Q62.69 15.48 61.99 14.74L61.99 14.74Q61.42 14.06 61.08 13.12Q60.74 12.17 60.74 11.09L60.74 11.09ZM65.98 7.85Q65.45 7.85 64.92 8.05Q64.39 8.26 64.06 8.62L64.06 8.62Q63.62 9.07 63.47 9.35Q63.31 9.62 63.26 10.10L63.26 10.10Q63.86 10.30 65.76 10.30L65.76 10.30Q66.79 10.30 67.36 9.98Q67.92 9.67 67.92 9.17L67.92 9.17Q67.92 8.66 67.30 8.26Q66.67 7.85 65.98 7.85L65.98 7.85ZM87.36 1.15Q87.36 1.39 87.24 2.47L87.24 2.47Q86.98 5.11 86.98 7.82L86.98 7.82Q86.98 10.20 87.05 11.45Q87.12 12.70 87.41 13.36Q87.70 14.02 88.30 14.02L88.30 14.02Q89.45 14.02 89.45 14.78L89.45 14.78Q89.45 15.29 88.94 15.64Q88.44 15.98 87.84 15.98L87.84 15.98Q87.12 15.98 86.50 15.65Q85.87 15.31 85.51 14.62L85.51 14.62Q85.01 15.36 84.06 15.80Q83.11 16.25 82.22 16.25L82.22 16.25Q80.86 16.25 79.80 15.67Q78.74 15.10 78.17 14.10Q77.59 13.10 77.59 11.90L77.59 11.90Q77.59 10.75 77.87 9.68Q78.14 8.62 78.62 7.92L78.62 7.92Q79.27 7.01 80.36 6.47Q81.46 5.93 82.51 5.93L82.51 5.93Q83.16 5.93 83.74 6.18Q84.31 6.43 84.74 6.79L84.74 6.79Q84.74 5.18 84.72 4.78L84.72 4.78L84.72 4.27Q84.72 2.04 85.01 1.01L85.01 1.01Q85.27 0 86.28 0L86.28 0Q86.83 0 87.10 0.24Q87.36 0.48 87.36 1.15L87.36 1.15ZM79.97 11.86Q79.97 12.96 80.60 13.63Q81.24 14.30 82.13 14.30L82.13 14.30Q83.40 14.30 84.01 13.51Q84.62 12.72 84.62 11.47L84.62 11.47L84.60 9.10Q83.66 8.06 82.66 8.06L82.66 8.06Q81.96 8.06 81.35 8.41Q80.74 8.76 80.38 9.46L80.38 9.46Q79.97 10.25 79.97 11.86L79.97 11.86ZM92.26 0.77Q93.10 0.84 93.72 1.21Q94.34 1.58 94.34 2.33L94.34 2.33Q94.34 2.88 93.83 3.20Q93.31 3.53 92.59 3.53L92.59 3.53Q91.90 3.53 91.63 3.17Q91.37 2.81 91.37 2.42L91.37 2.42Q91.37 1.70 91.52 1.22Q91.68 0.74 92.26 0.77L92.26 0.77ZM94.18 7.08L94.18 11.40L94.18 12.10Q94.18 13.03 94.24 13.86Q94.30 14.69 94.39 15.53L94.39 15.53Q94.37 15.77 94.03 16.02Q93.70 16.27 93.43 16.27L93.43 16.27Q92.98 16.27 92.51 16.09Q92.04 15.91 91.94 15.65L91.94 15.65Q91.80 14.88 91.80 14.28L91.80 14.28Q91.80 12.31 91.68 9.86L91.68 9.86Q91.58 7.70 91.58 6.84L91.58 6.84Q91.58 6.41 92.02 6.10Q92.45 5.78 92.93 5.78L92.93 5.78Q93.62 5.78 93.90 6.10Q94.18 6.41 94.18 7.08L94.18 7.08ZM114.74 2.86Q115.10 3.29 115.25 3.55Q115.39 3.82 115.39 4.06L115.39 4.06Q115.39 4.34 115.02 4.73Q114.65 5.11 114.29 5.11L114.29 5.11Q113.81 5.11 113.52 4.97Q113.23 4.82 113.04 4.51L113.04 4.51Q112.66 3.94 112.10 3.52Q111.55 3.10 110.38 3.10L110.38 3.10Q109.37 3.10 108.08 3.55Q106.80 4.01 106.25 4.68L106.25 4.68Q105.77 5.28 105.42 6.50Q105.07 7.73 105.07 8.88L105.07 8.88Q105.07 10.27 105.68 11.44Q106.30 12.60 107.46 13.30Q108.62 13.99 110.26 13.99L110.26 13.99Q111.14 13.99 112.09 13.64Q113.04 13.30 113.74 12.50L113.74 12.50L113.71 12.50Q114.14 12.05 114.79 12.05L114.79 12.05Q115.18 12.05 115.52 12.38Q115.87 12.72 115.87 13.06L115.87 13.06Q115.87 13.42 115.76 13.69Q115.66 13.97 115.37 14.30L115.37 14.30Q114.38 15.41 113.04 15.82Q111.70 16.22 109.82 16.22L109.82 16.22Q108.17 16.22 106.48 15.43Q104.78 14.64 103.87 13.51L103.87 13.51Q103.39 12.82 102.95 11.51Q102.50 10.20 102.50 9.38L102.50 9.38Q102.50 7.30 103.14 5.41Q103.78 3.53 105.05 2.40L105.05 2.40Q105.89 1.63 107.47 1.25Q109.06 0.86 110.38 0.86L110.38 0.86Q111.98 0.86 112.91 1.31Q113.83 1.75 114.74 2.86L114.74 2.86ZM128.93 15.02Q128.93 15.55 128.36 15.91Q127.80 16.27 127.32 16.27L127.32 16.27Q126.41 16.27 125.87 16.04Q125.33 15.82 124.87 15.19L124.87 15.19Q124.25 15.74 123.17 16.02Q122.09 16.30 121.18 16.30L121.18 16.30Q119.69 16.30 118.73 15.49Q117.77 14.69 117.77 13.13L117.77 13.13Q117.77 12.46 118.13 11.89Q118.49 11.33 119.11 10.90L119.11 10.90Q119.81 10.44 120.70 10.19Q121.58 9.94 122.54 9.94L122.54 9.94Q123.05 9.94 123.74 10.13Q124.44 10.32 124.82 10.54L124.82 10.54L124.82 10.15Q124.82 8.86 124.20 8.36Q123.58 7.87 122.18 7.87L122.18 7.87Q121.78 7.87 121.38 8.04Q120.98 8.21 120.48 8.50L120.48 8.50Q119.81 8.86 119.21 8.86L119.21 8.86Q118.99 8.86 118.80 8.56Q118.61 8.26 118.61 8.02L118.61 8.02Q118.61 7.32 119.27 6.82Q119.93 6.31 120.84 6.06Q121.75 5.81 122.47 5.81L122.47 5.81Q123.19 5.81 124.13 6.08Q125.06 6.36 125.66 6.84L125.66 6.84Q126.38 7.46 126.78 8.29Q127.18 9.12 127.18 10.10L127.18 10.10Q127.18 10.42 127.13 11.04L127.13 11.04Q127.08 11.71 127.08 12.19L127.08 12.19Q127.08 12.41 127.03 12.84L127.03 12.84Q126.98 13.37 126.98 13.68L126.98 13.68Q126.98 13.97 127.20 14.17Q127.42 14.38 127.70 14.38L127.70 14.38L128.38 14.35Q128.64 14.35 128.78 14.54Q128.93 14.74 128.93 15.02L128.93 15.02ZM121.20 14.40Q122.23 14.40 122.93 14.18Q123.62 13.97 124.61 13.39L124.61 13.39Q124.70 12.98 124.73 12.31L124.73 12.31Q123.41 11.69 122.54 11.69L122.54 11.69Q121.56 11.69 120.79 12.05Q120.02 12.41 120.02 13.32L120.02 13.32Q120.02 13.78 120.41 14.09Q120.79 14.40 121.20 14.40L121.20 14.40ZM137.23 10.78Q137.42 10.90 137.99 11.22Q138.55 11.54 138.74 11.98Q138.94 12.41 138.94 13.18L138.94 13.18Q138.94 14.04 138.43 14.70Q137.93 15.36 137.14 15.72L137.14 15.72Q136.56 15.98 135.73 16.13Q134.90 16.27 134.42 16.27L134.42 16.27Q133.94 16.27 133.19 16.13Q132.43 15.98 132.14 15.86L132.14 15.86Q131.40 15.43 130.86 14.81Q130.32 14.18 130.32 13.54L130.32 13.54Q130.32 13.06 130.63 12.78Q130.94 12.50 131.45 12.50L131.45 12.50Q131.69 12.50 131.95 12.68Q132.22 12.86 132.31 13.06L132.31 13.06Q132.58 13.68 133.20 13.99Q133.82 14.30 134.47 14.30L134.47 14.30Q135.31 14.30 136.03 14.03Q136.75 13.75 136.75 13.27L136.75 13.27Q136.75 13.06 136.64 12.92Q136.54 12.79 136.34 12.65L136.34 12.65Q136.01 12.41 135.34 12.25Q134.66 12.10 134.47 12.05L134.47 12.05Q133.49 11.83 132.55 11.40L132.55 11.40Q131.62 10.94 131.06 10.32Q130.51 9.70 130.51 8.71L130.51 8.71Q130.51 8.06 130.99 7.36Q131.47 6.65 132.07 6.36L132.07 6.36Q132.50 6.19 133.52 6.00Q134.54 5.81 134.90 5.81L134.90 5.81Q135.46 5.81 136.10 5.92Q136.75 6.02 137.09 6.26L137.09 6.26Q137.74 6.65 138.14 7.07Q138.55 7.49 138.55 8.02L138.55 8.02Q138.55 8.28 138.43 8.58Q138.31 8.88 138.14 8.95L138.14 8.95Q137.78 9.12 137.30 9.12L137.30 9.12Q137.09 9.12 136.96 9.00Q136.82 8.88 136.61 8.62L136.61 8.62Q136.34 8.21 136.10 8.14L136.10 8.14Q135.82 8.06 135.26 7.96Q134.71 7.85 134.52 7.85L134.52 7.85Q133.97 7.85 133.38 8.16Q132.79 8.47 132.79 8.88L132.79 8.88Q132.79 9.10 132.97 9.22Q133.15 9.34 133.36 9.43Q133.56 9.53 133.63 9.55L133.63 9.55Q134.14 9.79 134.75 9.96Q135.36 10.13 135.50 10.18L135.50 10.18Q136.80 10.49 137.23 10.78L137.23 10.78ZM152.11 15.02Q152.11 15.55 151.55 15.91Q150.98 16.27 150.50 16.27L150.50 16.27Q149.59 16.27 149.05 16.04Q148.51 15.82 148.06 15.19L148.06 15.19Q147.43 15.74 146.35 16.02Q145.27 16.30 144.36 16.30L144.36 16.30Q142.87 16.30 141.91 15.49Q140.95 14.69 140.95 13.13L140.95 13.13Q140.95 12.46 141.31 11.89Q141.67 11.33 142.30 10.90L142.30 10.90Q142.99 10.44 143.88 10.19Q144.77 9.94 145.73 9.94L145.73 9.94Q146.23 9.94 146.93 10.13Q147.62 10.32 148.01 10.54L148.01 10.54L148.01 10.15Q148.01 8.86 147.38 8.36Q146.76 7.87 145.37 7.87L145.37 7.87Q144.96 7.87 144.56 8.04Q144.17 8.21 143.66 8.50L143.66 8.50Q142.99 8.86 142.39 8.86L142.39 8.86Q142.18 8.86 141.98 8.56Q141.79 8.26 141.79 8.02L141.79 8.02Q141.79 7.32 142.45 6.82Q143.11 6.31 144.02 6.06Q144.94 5.81 145.66 5.81L145.66 5.81Q146.38 5.81 147.31 6.08Q148.25 6.36 148.85 6.84L148.85 6.84Q149.57 7.46 149.96 8.29Q150.36 9.12 150.36 10.10L150.36 10.10Q150.36 10.42 150.31 11.04L150.31 11.04Q150.26 11.71 150.26 12.19L150.26 12.19Q150.26 12.41 150.22 12.84L150.22 12.84Q150.17 13.37 150.17 13.68L150.17 13.68Q150.17 13.97 150.38 14.17Q150.60 14.38 150.89 14.38L150.89 14.38L151.56 14.35Q151.82 14.35 151.97 14.54Q152.11 14.74 152.11 15.02L152.11 15.02ZM144.38 14.40Q145.42 14.40 146.11 14.18Q146.81 13.97 147.79 13.39L147.79 13.39Q147.89 12.98 147.91 12.31L147.91 12.31Q146.59 11.69 145.73 11.69L145.73 11.69Q144.74 11.69 143.98 12.05Q143.21 12.41 143.21 13.32L143.21 13.32Q143.21 13.78 143.59 14.09Q143.98 14.40 144.38 14.40L144.38 14.40Z" transform="translate(36, 9.912)"></path></svg>